<?xml version="1.0" encoding="UTF-8"?>
<svg width="71px" height="62px" viewBox="0 0 71 62" version="1.1" xmlns="http://www.w3.org/2000/svg" xmlns:xlink="http://www.w3.org/1999/xlink">
    <!-- Generator: Sketch 58 (84663) - https://sketch.com -->
    <title>编组 5</title>
    <desc>Created with Sketch.</desc>
    <g id="页面-1" stroke="none" stroke-width="1" fill="none" fill-rule="evenodd">
        <g id="Android备份-24" transform="translate(-239.000000, -379.000000)">
            <g id="编组-5" transform="translate(239.000000, 379.000000)">
                <rect id="矩形" fill="#388CF1" opacity="0.0960751488" x="0" y="0" width="71" height="62" rx="3"></rect>
                <g id="公司" transform="translate(11.000000, 7.000000)" fill-rule="nonzero">
                    <rect id="矩形" fill="#000000" opacity="0" x="0" y="0" width="47" height="47"></rect>
                    <path d="M25.8888889,16.7777778 L34.5555556,16.7777778 C35.4222222,16.7777778 36,17.3555556 36,18.2222222 L36,35.5555556 C36,36.4222222 35.4222222,37 34.5555556,37 L11.4444444,37 C10.5777778,37 10,36.4222222 10,35.5555556 L10,12.4444444 C10,11.5777778 10.5777778,11 11.4444444,11 L24.4444444,11 C25.3111111,11 25.8888889,11.5777778 25.8888889,12.4444444 L25.8888889,16.7777778 Z M25.8888889,19.6666667 L25.8888889,34.1111111 L33.1111111,34.1111111 L33.1111111,19.6666667 L25.8888889,19.6666667 Z M12.8888889,13.8888889 L12.8888889,34.1111111 L23,34.1111111 L23,13.8888889 L12.8888889,13.8888889 Z M17.2222222,16.7777778 L18.6666667,16.7777778 C19.5333333,16.7777778 20.1111111,17.3555556 20.1111111,18.2222222 C20.1111111,19.0888889 19.5333333,19.6666667 18.6666667,19.6666667 L17.2222222,19.6666667 C16.3555556,19.6666667 15.7777778,19.0888889 15.7777778,18.2222222 C15.7777778,17.3555556 16.3555556,16.7777778 17.2222222,16.7777778 Z M17.2222222,22.5555556 L18.6666667,22.5555556 C19.5333333,22.5555556 20.1111111,23.1333333 20.1111111,24 C20.1111111,24.8666667 19.5333333,25.4444444 18.6666667,25.4444444 L17.2222222,25.4444444 C16.3555556,25.4444444 15.7777778,24.8666667 15.7777778,24 C15.7777778,23.1333333 16.3555556,22.5555556 17.2222222,22.5555556 Z M17.2222222,28.3333333 L18.6666667,28.3333333 C19.5333333,28.3333333 20.1111111,28.9111111 20.1111111,29.7777778 C20.1111111,30.6444444 19.5333333,31.2222222 18.6666667,31.2222222 L17.2222222,31.2222222 C16.3555556,31.2222222 15.7777778,30.6444444 15.7777778,29.7777778 C15.7777778,28.9111111 16.3555556,28.3333333 17.2222222,28.3333333 Z M28.7777778,22.5555556 L30.2222222,22.5555556 C31.0888889,22.5555556 31.6666667,23.1333333 31.6666667,24 C31.6666667,24.8666667 31.0888889,25.4444444 30.2222222,25.4444444 L28.7777778,25.4444444 C27.9111111,25.4444444 27.3333333,24.8666667 27.3333333,24 C27.3333333,23.1333333 27.9111111,22.5555556 28.7777778,22.5555556 Z M28.7777778,28.3333333 L30.2222222,28.3333333 C31.0888889,28.3333333 31.6666667,28.9111111 31.6666667,29.7777778 C31.6666667,30.6444444 31.0888889,31.2222222 30.2222222,31.2222222 L28.7777778,31.2222222 C27.9111111,31.2222222 27.3333333,30.6444444 27.3333333,29.7777778 C27.3333333,28.9111111 27.9111111,28.3333333 28.7777778,28.3333333 Z" id="形状" fill="#388CF1"></path>
                </g>
            </g>
        </g>
    </g>
</svg>