<?xml version="1.0" encoding="UTF-8"?>
<svg width="40px" height="40px" viewBox="0 0 40 40" version="1.1" xmlns="http://www.w3.org/2000/svg" xmlns:xlink="http://www.w3.org/1999/xlink">
    <!-- Generator: Sketch 58 (84663) - https://sketch.com -->
    <title>好房拓 4.0.0 iconfont_完成-82</title>
    <desc>Created with Sketch.</desc>
    <g id="页面-1" stroke="none" stroke-width="1" fill="none" fill-rule="evenodd">
        <g id="地区筛选" transform="translate(-994.000000, -628.000000)" fill-rule="nonzero">
            <g id="好房拓-4.0.0-iconfont_完成-82" transform="translate(992.000000, 626.000000)">
                <rect id="矩形" fill="#000000" opacity="0" x="0" y="0" width="44" height="44"></rect>
                <path d="M22,41.448 C19.375004,41.448 16.827976,40.933684 14.429624,39.91922 C12.11364,38.939648 10.033892,37.537544 8.248196,35.751804 C6.4625,33.966108 5.060352,31.88636 4.08078,29.570376 C3.06636,27.172024 2.552,24.624952 2.552,22 C2.552,19.375048 3.06636,16.827976 4.08078,14.429624 C5.060352,12.113596 6.4625,10.033892 8.248196,8.248196 C10.033892,6.462456 12.11364,5.060352 14.429624,4.08078 C16.827976,3.066316 19.375004,2.552 22,2.552 C24.624996,2.552 27.172024,3.066316 29.570376,4.08078 C31.88636,5.060352 33.966108,6.462456 35.751804,8.248196 C37.5375,10.033892 38.939648,12.11364 39.91922,14.429624 C40.93364,16.827976 41.448,19.375048 41.448,22 C41.448,24.624952 40.93364,27.172024 39.91922,29.570376 C38.939648,31.886404 37.5375,33.966108 35.751804,35.751804 C35.322276,36.18142 34.6258,36.18142 34.196184,35.751804 C33.766612,35.322232 33.766612,34.625712 34.196184,34.196184 C35.78058,32.611788 37.024372,30.767132 37.893064,28.713388 C38.792116,26.58766 39.248,24.328964 39.248,22 C39.248,19.671036 38.792116,17.41234 37.89302,15.286656 C37.024372,13.232868 35.780536,11.388212 34.196184,9.80386 C32.611788,8.219464 30.767088,6.975672 28.713344,6.10698 C26.58766,5.207884 24.328964,4.752 22,4.752 C19.671036,4.752 17.41234,5.207884 15.286656,6.10698 C13.232912,6.975628 11.388212,8.219464 9.803816,9.80386 C8.219464,11.388256 6.975628,13.232912 6.10698,15.286656 C5.207884,17.41234 4.752,19.671036 4.752,22 C4.752,24.328964 5.207884,26.58766 6.10698,28.713344 C6.975628,30.767132 8.219464,32.611788 9.803816,34.19614 C11.388212,35.780536 13.232912,37.024328 15.286656,37.89302 C17.41234,38.792116 19.671036,39.248 22,39.248 C23.514788,39.248 25.017344,39.051672 26.466,38.664472 C27.05296,38.50726 27.655848,38.856224 27.812708,39.44314 C27.969568,40.030056 27.620956,40.632988 27.03404,40.789848 C25.400188,41.226592 23.706496,41.448 22,41.448 Z M17.6,31.9 C17.318488,31.9 17.036976,31.79264 16.822168,31.577832 L8.902168,23.657832 C8.472596,23.22826 8.472596,22.53174 8.902168,22.102212 C9.331784,21.672596 10.028216,21.672596 10.457788,22.102212 L18.377788,30.022212 C18.80736,30.451784 18.80736,31.148304 18.377788,31.577832 C18.163024,31.79264 17.881512,31.9 17.6,31.9 Z M17.6,31.9 C17.318488,31.9 17.036976,31.79264 16.822168,31.577832 C16.392596,31.14826 16.392596,30.45174 16.822168,30.022212 L32.662168,14.182212 C33.091784,13.752596 33.788216,13.752596 34.217788,14.182212 C34.64736,14.611784 34.64736,15.308304 34.217788,15.737832 L18.377788,31.577832 C18.163024,31.79264 17.881512,31.9 17.6,31.9 Z" id="形状" fill="#3960AA"></path>
            </g>
        </g>
    </g>
</svg>