<?xml version="1.0" encoding="UTF-8"?>
<svg width="71px" height="62px" viewBox="0 0 71 62" version="1.1" xmlns="http://www.w3.org/2000/svg" xmlns:xlink="http://www.w3.org/1999/xlink">
    <!-- Generator: Sketch 58 (84663) - https://sketch.com -->
    <title>编组 4</title>
    <desc>Created with Sketch.</desc>
    <g id="页面-1" stroke="none" stroke-width="1" fill="none" fill-rule="evenodd">
        <g id="Android备份-24" transform="translate(-45.000000, -379.000000)">
            <g id="编组-4" transform="translate(45.000000, 379.000000)">
                <rect id="矩形" fill="#388CF1" opacity="0.0960751488" x="0" y="0" width="71" height="62" rx="3"></rect>
                <g id="业务表单" transform="translate(19.000000, 15.000000)" fill-rule="nonzero">
                    <rect id="矩形" fill="#000000" opacity="0" x="0" y="0" width="32" height="32"></rect>
                    <path d="M25.0666667,5.33333334 L25.0666667,26.6666667 L6.4,26.6666667 L6.4,5.33333334 L25.0666667,5.33333334 M25.0666667,2.66666666 L6.4,2.66666666 C5.69275602,2.66666666 5.01447892,2.94761823 4.51438191,3.44771525 C4.01428491,3.94781226 3.73333334,4.62608937 3.73333334,5.33333334 L3.73333334,26.6666667 C3.73333334,27.3739106 4.01428491,28.0521877 4.51438191,28.5522848 C5.01447892,29.0523818 5.69275602,29.3333333 6.4,29.3333333 L25.0666667,29.3333333 C25.7739106,29.3333333 26.4521877,29.0523818 26.9522848,28.5522848 C27.4523818,28.0521877 27.7333333,27.3739106 27.7333333,26.6666667 L27.7333333,5.33333334 C27.7333333,4.62608936 27.4523818,3.94781225 26.9522848,3.44771524 C26.4521877,2.94761822 25.7739106,2.66666666 25.0666667,2.66666666 L25.0666667,2.66666666 Z" id="形状" fill="#388CF1"></path>
                    <path d="M21.0666667,9.33333334 L10.4,9.33333334 C9.66370005,9.33344607 9.06687078,9.93036671 9.06687078,10.6666667 C9.06687078,11.4029666 9.66370005,11.9998873 10.4,12 L21.0666667,12 C21.8029666,11.9998873 22.3997959,11.4029666 22.3997959,10.6666667 C22.3997959,9.93036671 21.8029666,9.33344607 21.0666667,9.33333334 Z M15.7333333,14.6666667 L10.4,14.6666667 C9.66362033,14.6666667 9.06666666,15.2636203 9.06666666,16 C9.06666666,16.7363797 9.66362033,17.3333333 10.4,17.3333333 L15.7333333,17.3333333 C16.469713,17.3333333 17.0666667,16.7363797 17.0666667,16 C17.0666667,15.2636203 16.469713,14.6666667 15.7333333,14.6666667 L15.7333333,14.6666667 Z M19.7333333,20 L10.4,20 C9.66370005,20.0001127 9.06687078,20.5970334 9.06687078,21.3333333 C9.06687078,22.0696333 9.66370005,22.6665539 10.4,22.6666667 L19.7333333,22.6666667 C20.4696333,22.6665539 21.0664626,22.0696333 21.0664626,21.3333333 C21.0664626,20.5970334 20.4696333,20.0001127 19.7333333,20 Z" id="形状" fill="#388CF1"></path>
                </g>
            </g>
        </g>
    </g>
</svg>