<?xml version="1.0" encoding="UTF-8"?>
<svg width="30px" height="35px" viewBox="0 0 30 35" version="1.1" xmlns="http://www.w3.org/2000/svg" xmlns:xlink="http://www.w3.org/1999/xlink">
    <!-- Generator: Sketch 58 (84663) - https://sketch.com -->
    <title>删除_o</title>
    <desc>Created with Sketch.</desc>
    <g id="Page-1" stroke="none" stroke-width="1" fill="none" fill-rule="evenodd">
        <g id="搜招标" transform="translate(-1002.000000, -425.000000)" fill-rule="nonzero">
            <g id="删除_o" transform="translate(992.000000, 417.230618)">
                <rect id="矩形" fill="#000000" opacity="0" x="0" y="0" width="48" height="48"></rect>
                <path d="M12,12 L38,12 L38,42 L12,42 L12,12 Z M14,14 L14,40 L36,40 L36,14 L14,14 Z M20,20 L22,20 L22,34 L20,34 L20,20 Z M28,20 L30,20 L30,34 L28,34 L28,20 Z M9.99999998,12 L40,12 L40,14 L9.99999998,14 L9.99999998,12 Z M20,8.00000002 L30,8.00000002 L30,10 L20,10 L20,8.00000002 L20,8.00000002 Z" id="形状" fill="#757679"></path>
            </g>
        </g>
    </g>
</svg>