<?xml version="1.0" encoding="UTF-8"?>
<svg width="18px" height="18px" viewBox="0 0 18 18" version="1.1"
    xmlns="http://www.w3.org/2000/svg">
    <!-- Generator: Sketch 58 (84663) - https://sketch.com -->
    <title>phone</title>
    <desc>Created with Sketch.</desc>
    <g id="页面-1" stroke="none" stroke-width="1" fill="none" fill-rule="evenodd">
        <g id="Android备份-23" transform="translate(-39.000000, -313.000000)" fill-rule="nonzero">
            <g id="phone"
                transform="translate(48.000000, 322.000000) scale(-1, 1) translate(-48.000000, -322.000000) translate(37.000000, 311.000000)">
                <rect id="矩形" fill="#000000" opacity="0" x="0" y="0" width="22" height="22"></rect>
                <path
                    d="M18.8439453,5.12832031 L16.5558594,2.84238281 C16.2765625,2.56308594 15.9027344,2.40625 15.5074219,2.40625 C15.1121094,2.40625 14.7382813,2.5609375 14.4589844,2.84238281 L11.9947266,5.30234375 C11.7154297,5.58164063 11.5585938,5.95761719 11.5585938,6.35292969 C11.5585938,6.75039062 11.7132813,7.12207031 11.9947266,7.40351563 L13.9197266,9.33066406 C13.4771484,10.3576172 12.8541016,11.2771484 12.0634766,12.065625 C11.275,12.8583984 10.3533203,13.4835937 9.33066406,13.9261719 L7.40566406,11.9990234 C7.12636719,11.7197266 6.75253906,11.5628906 6.35722656,11.5628906 C5.95976563,11.5628906 5.58808594,11.7175781 5.30878906,11.9990234 L2.84238281,14.4589844 C2.56308594,14.7382813 2.40625,15.1142578 2.40625,15.5095703 C2.40625,15.9070313 2.5609375,16.2787109 2.84238281,16.5601563 L5.12832031,18.8460938 C5.60527344,19.3230469 6.26269531,19.5958984 6.93730469,19.5958984 C7.07695313,19.5958984 7.21230469,19.5851563 7.34980469,19.5615234 C10.1943359,19.0931641 13.0173828,17.5785156 15.296875,15.3011719 C17.5742188,13.0195313 19.0867188,10.1964844 19.559375,7.34980469 C19.6947266,6.54199219 19.4240234,5.71054688 18.8439453,5.12832031 Z M18.0361328,7.09414062 C17.6171875,9.62714844 16.2550781,12.1537109 14.2033203,14.2054687 C12.1515625,16.2572266 9.62714844,17.6193359 7.09414063,18.0382812 C6.77617188,18.0919922 6.44960938,17.9845703 6.21757813,17.7546875 L3.97246094,15.5095703 L6.35292969,13.1269531 L8.92675781,15.7050781 L8.94609375,15.7244141 L9.41015625,15.5525391 C12.2611328,14.5019531 14.4998047,12.2632812 15.5482422,9.41230469 L15.7201172,8.94824219 L13.1248047,6.35507812 L15.5052734,3.97246094 L17.7503906,6.21757812 C17.9824219,6.44960937 18.0898437,6.77617187 18.0361328,7.09414062 Z"
                    id="形状" fill="#388CF1"></path>
            </g>
        </g>
    </g>
</svg>