<svg width="18" height="20" viewBox="0 0 18 20" fill="none" xmlns="http://www.w3.org/2000/svg">
<path d="M6.39679 5.90656H11.6052V6.76007H6.39679V5.90656ZM6.39679 7.66554H11.6052V8.51905H6.39679V7.66554Z" fill="#333333"/>
<path d="M14.3263 3.08254H10.0794C9.95989 2.57043 9.52219 2.19006 9.00012 2.19006C8.47805 2.19006 8.04036 2.57043 7.92083 3.08254H3.67395C3.22747 3.08254 2.86536 3.46663 2.86536 3.93606V17.8873C2.86536 18.3586 3.22747 18.7408 3.67395 18.7408H14.3263C14.7728 18.7408 15.1349 18.3568 15.1349 17.8873V3.93606C15.1349 3.46663 14.7728 3.08254 14.3263 3.08254ZM3.67395 17.8873V3.93606H8.02805C8.2179 4.29417 8.58176 4.53723 8.99836 4.53723C9.41497 4.53723 9.77883 4.29417 9.96868 3.93606H14.3263V17.8873H3.67395Z" fill="#333333"/>
<path d="M10.148 11.5806L9.00015 9.12579L7.8523 11.5787L5.28589 11.9721L7.14214 13.8814L6.70444 16.5792L9.00015 15.3082L11.2941 16.5811L10.8564 13.8832L12.7126 11.9739L10.148 11.5806ZM10.489 15.4103L9.00015 14.5846L7.51128 15.4103L7.79605 13.6606L6.59194 12.4211L8.25659 12.1651L9.00015 10.5731L9.7437 12.1651L11.4083 12.4211L10.2042 13.6606L10.489 15.4103Z" fill="#333333"/>
</svg>
