<svg width="23" height="23" viewBox="0 0 23 23" fill="none" xmlns="http://www.w3.org/2000/svg">
<path d="M19.0199 13.6247C19.2498 12.8706 19.3658 12.0865 19.3658 11.2894C19.3658 7.81321 17.0627 4.68723 13.7541 3.65383C13.6703 2.48723 12.6949 1.56555 11.5068 1.56555C10.3488 1.56555 9.39279 2.44426 9.26818 3.57004C9.26388 3.57004 9.25958 3.57219 9.25743 3.57219C5.78986 4.5175 3.36857 7.6929 3.36857 11.2894C3.36857 12.123 3.49747 12.9458 3.74884 13.7322C3.34923 14.1382 3.10431 14.6947 3.10431 15.3091C3.10431 16.5509 4.11407 17.5628 5.35802 17.5628C5.65665 17.5628 5.94239 17.5048 6.20236 17.3974C7.64396 18.6177 9.47443 19.2902 11.3693 19.2902C13.2815 19.2902 15.1313 18.6048 16.5793 17.3609L16.5858 17.3544C16.8715 17.4876 17.1916 17.5607 17.5289 17.5607C18.7707 17.5607 19.7805 16.5509 19.7805 15.307C19.7783 14.6388 19.484 14.0372 19.0199 13.6247ZM11.509 2.61829C12.1707 2.61829 12.7078 3.1554 12.7078 3.81711C12.7078 4.47883 12.1707 5.01594 11.509 5.01594C10.8473 5.01594 10.3102 4.47883 10.3102 3.81711C10.3102 3.15754 10.8473 2.61829 11.509 2.61829ZM4.15704 15.3091C4.15704 14.6474 4.69415 14.1103 5.35587 14.1103C6.01759 14.1103 6.5547 14.6474 6.5547 15.3091C6.5547 15.9708 6.01759 16.5079 5.35587 16.5079C4.69415 16.5079 4.15704 15.9687 4.15704 15.3091ZM7.08107 16.755C7.40978 16.364 7.60743 15.8591 7.60743 15.3091C7.60743 14.0673 6.59767 13.0575 5.35587 13.0575C5.11954 13.0575 4.89181 13.0941 4.67697 13.1628C4.50724 12.557 4.42345 11.9296 4.42345 11.2915C4.42345 8.21282 6.46661 5.49075 9.40782 4.62708C9.73224 5.47141 10.5529 6.07083 11.5111 6.07083C12.4393 6.07083 13.2363 5.50793 13.5822 4.70442C16.3774 5.64543 18.3131 8.32239 18.3131 11.2894C18.3131 11.9124 18.2315 12.5269 18.0682 13.122C17.8942 13.079 17.7115 13.0554 17.5246 13.0554C16.2828 13.0554 15.2731 14.0652 15.2731 15.307C15.2731 15.8247 15.4492 16.3017 15.7436 16.682C14.5104 17.6853 12.9635 18.2353 11.3672 18.2353C9.80958 18.2353 8.29923 17.7132 7.08107 16.755ZM17.5268 16.5079C16.8651 16.5079 16.3279 15.9708 16.3279 15.3091C16.3279 14.6474 16.8651 14.1103 17.5268 14.1103C18.1885 14.1103 18.7256 14.6474 18.7256 15.3091C18.7256 15.9687 18.1863 16.5079 17.5268 16.5079Z" fill="#333333"/>
<path opacity="0.5" d="M6.47308 14.1102C6.38929 14.1102 6.30335 14.0909 6.22601 14.0479C5.97034 13.9104 5.87152 13.5925 6.00902 13.3346L10.3059 5.29519C10.4434 5.03952 10.7614 4.94069 11.0192 5.07819C11.2748 5.21569 11.3737 5.53366 11.2362 5.79148L6.93929 13.8309C6.84476 14.0093 6.66214 14.1102 6.47308 14.1102ZM15.7994 15.4874H7.04671C6.75667 15.4874 6.52034 15.2511 6.52034 14.961C6.52034 14.671 6.75667 14.4346 7.04671 14.4346H15.7994C16.0895 14.4346 16.3258 14.671 16.3258 14.961C16.3258 15.2511 16.0916 15.4874 15.7994 15.4874ZM16.6502 14.1102C16.4633 14.1102 16.2828 14.0114 16.1883 13.8374L11.7862 5.79577C11.6465 5.54011 11.741 5.21999 11.9946 5.08034C12.2502 4.93855 12.5703 5.03308 12.71 5.28874L17.11 13.3303C17.2496 13.586 17.1551 13.9061 16.9016 14.0458C16.8221 14.0887 16.734 14.1102 16.6502 14.1102Z" fill="#333333"/>
</svg>
