<?xml version="1.0" encoding="UTF-8"?>
<svg width="71px" height="62px" viewBox="0 0 71 62" version="1.1" xmlns="http://www.w3.org/2000/svg" xmlns:xlink="http://www.w3.org/1999/xlink">
    <!-- Generator: Sketch 58 (84663) - https://sketch.com -->
    <title>编组 6</title>
    <desc>Created with Sketch.</desc>
    <g id="页面-1" stroke="none" stroke-width="1" fill="none" fill-rule="evenodd">
        <g id="Android备份-24" transform="translate(-427.000000, -379.000000)">
            <g id="编组-6" transform="translate(427.000000, 379.000000)">
                <rect id="矩形" fill="#388CF1" opacity="0.0960751488" x="0" y="0" width="71" height="62" rx="3"></rect>
                <g id="聚分节点" transform="translate(20.000000, 15.000000)" fill-rule="nonzero">
                    <rect id="矩形" fill="#000000" opacity="0" x="0" y="0" width="32" height="32"></rect>
                    <path d="M16.1333333,6.66666666 C17.2379028,6.66666666 18.1333333,7.56209716 18.1333333,8.66666666 C18.1333333,9.77123616 17.2379028,10.6666667 16.1333333,10.6666667 C15.0287638,10.6666667 14.1333333,9.77123616 14.1333333,8.66666666 C14.1333333,7.56209716 15.0287638,6.66666666 16.1333333,6.66666666 M16.1333333,4 C13.5560045,4 11.4666667,6.08933783 11.4666667,8.66666666 C11.4666667,11.2439955 13.5560045,13.3333333 16.1333333,13.3333333 C18.7106621,13.3333333 20.8,11.2439955 20.8,8.66666666 C20.8,7.42898971 20.3083347,6.24200478 19.433165,5.36683502 C18.5579952,4.49166525 17.3710103,4 16.1333333,4 Z" id="形状" fill="#388CF1"></path>
                    <path d="M12.8,24.6666667 C12.7998847,25.8576288 13.4351892,26.9581726 14.4665735,27.553687 C15.4979577,28.1492013 16.7687089,28.1492013 17.8000931,27.553687 C18.8314774,26.9581726 19.4667819,25.8576288 19.4666666,24.6666667 C19.4667819,23.4757045 18.8314774,22.3751607 17.8000931,21.7796463 C16.7687089,21.184132 15.4979577,21.184132 14.4665735,21.7796463 C13.4351892,22.3751607 12.7998847,23.4757045 12.8,24.6666667 L12.8,24.6666667 Z" id="路径" fill="#388CF1"></path>
                    <path d="M4.8,23.3333333 C4.79988469,24.5242955 5.43518921,25.6248393 6.46657349,26.2203537 C7.49795777,26.815868 8.76870889,26.815868 9.80009317,26.2203537 C10.8314774,25.6248393 11.466782,24.5242955 11.4666667,23.3333333 C11.466782,22.1423712 10.8314774,21.0418274 9.80009317,20.446313 C8.76870889,19.8507987 7.49795777,19.8507987 6.46657349,20.446313 C5.43518921,21.0418274 4.79988469,22.1423712 4.8,23.3333333 L4.8,23.3333333 Z" id="路径" fill="#388CF1"></path>
                    <path d="M20.8,23.3333333 C20.7998847,24.5242955 21.4351892,25.6248393 22.4665735,26.2203537 C23.4979577,26.815868 24.7687089,26.815868 25.8000931,26.2203537 C26.8314774,25.6248393 27.4667819,24.5242955 27.4666666,23.3333333 C27.4667819,22.1423712 26.8314774,21.0418274 25.8000931,20.446313 C24.7687089,19.8507987 23.4979577,19.8507987 22.4665735,20.446313 C21.4351892,21.0418274 20.7998847,22.1423712 20.8,23.3333333 L20.8,23.3333333 Z" id="路径" fill="#388CF1"></path>
                    <polygon id="路径" fill="#388CF1" points="15.4666667 10.6666667 16.8 10.6666667 16.8 22.6666667 15.4666667 22.6666667"></polygon>
                    <polygon id="路径" fill="#388CF1" points="15.6013333 15.1386667 16.544 14.1946667 23.5773333 21.228 22.6346667 22.172"></polygon>
                    <polygon id="路径" fill="#388CF1" points="9.76 22.2853333 8.81733334 21.3426667 15.964 14.196 16.9066667 15.1386667"></polygon>
                </g>
            </g>
        </g>
    </g>
</svg>