<svg width="20" height="20" viewBox="0 0 20 20" fill="none" xmlns="http://www.w3.org/2000/svg">
<path d="M5.34831 15.2347L10.1511 18.8763C10.2242 18.9312 10.3131 18.9608 10.4044 18.9608C10.4958 18.9608 10.5847 18.9312 10.6578 18.8763L15.4605 15.2347C16.1564 14.7042 16.721 14.0209 17.1108 13.2376C17.5006 12.4543 17.7053 11.5919 17.7089 10.7169V4.38356C17.7062 4.29309 17.6752 4.20573 17.6203 4.13378C17.5654 4.06183 17.4893 4.0089 17.4028 3.98245L10.5311 1.87134C10.4479 1.85034 10.3609 1.85034 10.2778 1.87134L3.40609 3.98245C3.31953 4.0089 3.24344 4.06183 3.18853 4.13378C3.13362 4.20573 3.10265 4.29309 3.09998 4.38356V10.7169C3.10359 11.5919 3.30821 12.4543 3.69804 13.2376C4.08787 14.0209 4.65249 14.7042 5.34831 15.2347ZM3.94442 4.71079L10.4044 2.70523L16.8644 4.71079V10.7169C16.8616 11.4609 16.6879 12.1943 16.3566 12.8605C16.0253 13.5267 15.5454 14.1079 14.9539 14.5591L10.4044 18.0108L5.85498 14.5591C5.26343 14.1079 4.7835 13.5267 4.45223 12.8605C4.12097 12.1943 3.94722 11.4609 3.94442 10.7169V4.71079Z" fill="#333333"/>
<path d="M9.79218 11.9625C10.4411 11.9594 11.0712 11.7445 11.5866 11.3503L13.2966 13.0603C13.3349 13.1001 13.3807 13.1319 13.4315 13.1536C13.4823 13.1754 13.5369 13.1867 13.5922 13.1869C13.6475 13.1873 13.7023 13.1763 13.7532 13.1545C13.8041 13.1327 13.8499 13.1006 13.8877 13.0603C13.9273 13.0219 13.9588 12.9759 13.9803 12.9252C14.0018 12.8744 14.0128 12.8198 14.0128 12.7647C14.0128 12.7096 14.0018 12.655 13.9803 12.6042C13.9588 12.5535 13.9273 12.5075 13.8877 12.4691L12.1883 10.7591C12.5925 10.2182 12.8023 9.55658 12.7835 8.88153C12.7648 8.20649 12.5187 7.55754 12.0851 7.03983C11.6515 6.52213 11.0557 6.16599 10.3944 6.02913C9.73315 5.89227 9.04502 5.9827 8.44154 6.28577C7.83806 6.58884 7.35458 7.08679 7.06945 7.69895C6.78432 8.31111 6.71423 9.00161 6.87054 9.65858C7.02685 10.3156 7.4004 10.9005 7.93067 11.3187C8.46095 11.7368 9.11687 11.9637 9.79218 11.9625ZM8.29329 7.4447C8.4913 7.24268 8.72788 7.08252 8.989 6.97372C9.25011 6.86492 9.53042 6.80971 9.81329 6.81136C10.1513 6.82784 10.4804 6.92534 10.7728 7.09564C11.0653 7.26593 11.3125 7.50404 11.4936 7.78988C11.6748 8.07572 11.7846 8.40093 11.8137 8.73808C11.8429 9.07524 11.7906 9.41446 11.6612 9.72716C11.5318 10.0399 11.3291 10.3169 11.0703 10.5348C10.8114 10.7528 10.5039 10.9054 10.1738 10.9796C9.84359 11.0539 9.50041 11.0477 9.17315 10.9616C8.84588 10.8754 8.54412 10.7119 8.29329 10.4847C8.08897 10.2878 7.92646 10.0517 7.81545 9.7905C7.70445 9.52933 7.64724 9.24847 7.64724 8.9647C7.64724 8.68092 7.70445 8.40006 7.81545 8.1389C7.92646 7.87773 8.08897 7.64163 8.29329 7.4447Z" fill="#333333"/>
</svg>
