<svg width="16" height="17" viewBox="0 0 16 17" fill="none" xmlns="http://www.w3.org/2000/svg">
<g clip-path="url(#clip0)">
<path d="M14.6668 2.17196V13.2153L8.00012 15.4363L1.33346 13.2153V2.17196H14.6668ZM16.0001 0.838623H0.00012207V14.172L8.00012 16.8386L16.0001 14.172V0.838623Z" fill="#333333"/>
<path d="M9.20645 8.26694L11.5731 8.61361C11.6039 8.61808 11.6328 8.63107 11.6566 8.65112C11.6804 8.67117 11.6981 8.69748 11.7077 8.72707C11.7173 8.75665 11.7184 8.78834 11.711 8.81853C11.7035 8.84873 11.6877 8.87624 11.6655 8.89794L9.95045 10.5646L10.3528 12.9223C10.3582 12.953 10.3548 12.9847 10.3431 13.0136C10.3314 13.0425 10.3118 13.0676 10.2866 13.0859C10.2613 13.1043 10.2314 13.1152 10.2003 13.1173C10.1691 13.1195 10.138 13.1129 10.1105 13.0983L7.99545 11.9833L5.87712 13.0939C5.8496 13.1084 5.8186 13.1148 5.78761 13.1125C5.75662 13.1103 5.72688 13.0994 5.70175 13.0811C5.67661 13.0629 5.65709 13.0379 5.64537 13.0092C5.63366 12.9804 5.63022 12.9489 5.63545 12.9183L6.04212 10.5616L4.33379 8.89094C4.3115 8.86921 4.29573 8.84168 4.28829 8.81146C4.28084 8.78124 4.28201 8.74953 4.29165 8.71994C4.3013 8.69035 4.31904 8.66404 4.34286 8.64401C4.36668 8.62398 4.39564 8.61103 4.42645 8.60661L6.79312 8.26494L7.85312 6.12161C7.86677 6.09343 7.88808 6.06966 7.9146 6.05304C7.94113 6.03641 7.97181 6.02759 8.00312 6.02759C8.03443 6.02759 8.0651 6.03641 8.09163 6.05304C8.11816 6.06966 8.13947 6.09343 8.15312 6.12161L9.20645 8.26694Z" fill="#333333"/>
<path d="M2.66412 3.50262H13.3308V4.83596H2.66412V3.50262Z" fill="#333333"/>
</g>
<defs>
<clipPath id="clip0">
<rect width="16" height="16" fill="white" transform="translate(0.00012207 0.838623)"/>
</clipPath>
</defs>
</svg>
